<svg width="60" height="60" viewBox="0 0 60 60" fill="none" xmlns="http://www.w3.org/2000/svg">
<g clip-path="url(#clip0_2_11)">
<path d="M47.6712 0.821915H12.3288C5.97372 0.821915 0.82193 5.97371 0.82193 12.3288V47.6712C0.82193 54.0263 5.97372 59.1781 12.3288 59.1781H47.6712C54.0263 59.1781 59.1781 54.0263 59.1781 47.6712V12.3288C59.1781 5.97371 54.0263 0.821915 47.6712 0.821915Z" fill="#264653" stroke="#264653" stroke-width="21.9178"/>
<path d="M49.5672 19.256C47.5855 15.8607 44.8976 13.1727 41.5026 11.1912C38.1071 9.20969 34.4002 8.21918 30.3793 8.21918C26.3589 8.21918 22.6508 9.21 19.256 11.1912C15.8607 13.1726 13.1729 15.8607 11.1912 19.256C9.2099 22.6512 8.21918 26.3588 8.21918 30.3787C8.21918 35.2075 9.62799 39.5496 12.4463 43.4063C15.2644 47.2633 18.9048 49.9321 23.3675 51.4132C23.8869 51.5096 24.2715 51.4418 24.5215 51.2115C24.7716 50.9808 24.8966 50.692 24.8966 50.3462C24.8966 50.2885 24.8916 49.7693 24.882 48.7881C24.8721 47.8069 24.8674 46.9509 24.8674 46.2205L24.2038 46.3353C23.7806 46.4128 23.2468 46.4457 22.6023 46.4364C21.9582 46.4274 21.2894 46.3599 20.597 46.2343C19.9044 46.1099 19.2601 45.8214 18.6637 45.3693C18.0676 44.9173 17.6445 44.3256 17.3944 43.5951L17.1058 42.9311C16.9135 42.489 16.6107 41.998 16.1971 41.4597C15.7834 40.921 15.3651 40.5557 14.942 40.3634L14.7399 40.2188C14.6053 40.1227 14.4804 40.0067 14.3649 39.8722C14.2495 39.7377 14.1631 39.6031 14.1054 39.4683C14.0476 39.3334 14.0955 39.2227 14.2496 39.1359C14.4037 39.0491 14.6822 39.0069 15.0864 39.0069L15.6633 39.0931C16.048 39.1702 16.5239 39.4006 17.0916 39.7855C17.6589 40.1702 18.1253 40.6702 18.4909 41.2855C18.9335 42.0744 19.4669 42.6755 20.0923 43.0892C20.7173 43.5028 21.3474 43.7093 21.9821 43.7093C22.6168 43.7093 23.1649 43.6612 23.6268 43.5655C24.0882 43.4693 24.521 43.3246 24.9252 43.1324C25.0983 41.8431 25.5696 40.8525 26.3388 40.1602C25.2425 40.0449 24.2568 39.8714 23.3813 39.6407C22.5063 39.4097 21.6021 39.0347 20.6693 38.5149C19.736 37.9957 18.9617 37.351 18.3464 36.5819C17.7309 35.8124 17.2258 34.8022 16.8317 33.5522C16.4375 32.3016 16.2403 30.8591 16.2403 29.2241C16.2403 26.8961 17.0003 24.915 18.52 23.2799C17.8081 21.5296 17.8753 19.5676 18.7218 17.394C19.2797 17.2206 20.107 17.3507 21.2033 17.7834C22.2998 18.2162 23.1027 18.587 23.6127 18.8944C24.1226 19.2018 24.5312 19.4622 24.839 19.6734C26.6284 19.1735 28.4749 18.9234 30.3791 18.9234C32.2833 18.9234 34.1303 19.1735 35.9197 19.6734L37.0161 18.9812C37.7659 18.5194 38.6513 18.0961 39.6702 17.7114C40.6897 17.3269 41.4693 17.2209 42.0082 17.3943C42.8735 19.568 42.9506 21.53 42.2385 23.2802C43.7581 24.9153 44.5184 26.8969 44.5184 29.2244C44.5184 30.8594 44.3205 32.3065 43.9269 33.5666C43.5327 34.827 43.0233 35.8362 42.3983 36.5964C41.7726 37.3565 40.9934 37.9961 40.0606 38.5152C39.1276 39.0346 38.2231 39.4096 37.3481 39.6406C36.4727 39.8716 35.487 40.0452 34.3907 40.1607C35.3906 41.026 35.8907 42.3918 35.8907 44.2576V50.3454C35.8907 50.6912 36.0109 50.9799 36.2517 51.2107C36.4921 51.441 36.8718 51.5088 37.3912 51.4123C41.8545 49.9314 45.495 47.2624 48.3129 43.4055C51.1305 39.5488 52.5398 35.2067 52.5398 30.3779C52.5388 26.3585 51.5476 22.6512 49.5672 19.256Z" fill="white"/>
</g>
<defs>
<clipPath id="clip0_2_11">
<rect width="60" height="60" fill="white"/>
</clipPath>
</defs>
</svg>
