<svg width="60" height="60" viewBox="0 0 60 60" fill="none" xmlns="http://www.w3.org/2000/svg">
<g clip-path="url(#clip0_2_16)">
<path d="M51.1227 51.1236H42.2325V37.201C42.2325 33.8811 42.1733 29.6072 37.6087 29.6072C32.9785 29.6072 32.27 33.2245 32.27 36.9593V51.1227H23.3799V22.4922H31.9144V26.4049H32.0339C33.7741 23.4293 37.0099 21.6522 40.4545 21.78C49.465 21.78 51.1264 27.7069 51.1264 35.4174L51.1227 51.1236ZM13.3489 18.5786C10.4996 18.5791 8.18943 16.2697 8.18892 13.4204C8.18841 10.571 10.4978 8.26078 13.347 8.26027C16.1963 8.25976 18.5065 10.5692 18.507 13.4185C18.5073 14.7868 17.964 16.0992 16.9966 17.0669C16.0293 18.0346 14.7172 18.5784 13.3489 18.5786ZM17.794 51.1236H8.89457V22.4922H17.794V51.1236ZM55.5548 0.00431372H4.42728C2.01089 -0.0229558 0.0293076 1.91267 -0.000183105 4.32908V55.6697C0.0282979 58.0873 2.00972 60.0249 4.42728 59.9995H55.5548C57.9771 60.0295 59.9663 58.0921 59.9998 55.6697V4.32538C59.9653 1.90419 57.9759 -0.0313231 55.5548 0.00021991" fill="#264653"/>
</g>
<defs>
<clipPath id="clip0_2_16">
<rect width="60" height="60" fill="white"/>
</clipPath>
</defs>
</svg>
