<svg width="50" height="50" viewBox="0 0 50 50" fill="none" xmlns="http://www.w3.org/2000/svg">
<path d="M31.8752 46.9303C33.4786 46.9303 33.4786 49.3687 31.8752 49.3687H2.49686C1.82363 49.3687 1.27795 48.8224 1.27795 48.1492V11.4349C1.27795 11.0983 1.41437 10.793 1.63465 10.5727L11.2194 0.988588C11.4574 0.750594 11.7692 0.631302 12.081 0.631302H39.6535C40.3267 0.631302 40.8729 1.17757 40.8729 1.8508V23.1911C40.8729 24.7951 38.4345 24.7951 38.4345 23.1911V3.06971H12.5859L3.71636 11.9399V46.9303H31.8752ZM11.1343 36.1834C9.53038 36.1834 9.53038 33.7449 11.1343 33.7449H29.2449C30.8489 33.7449 30.8489 36.1834 29.2449 36.1834H11.1343ZM11.1343 19.962C9.53038 19.962 9.53038 17.5236 11.1343 17.5236H29.2449C30.8489 17.5236 30.8489 19.962 29.2449 19.962H11.1343ZM11.1343 25.3691C9.53038 25.3691 9.53038 22.9307 11.1343 22.9307H29.2449C30.8489 22.9307 30.8489 25.3691 29.2449 25.3691H11.1343ZM11.1343 30.7762C9.53038 30.7762 9.53038 28.3378 11.1343 28.3378H29.2449C30.8489 28.3378 30.8489 30.7762 29.2449 30.7762H11.1343ZM11.1343 14.5548C9.53038 14.5548 9.53038 12.1164 11.1343 12.1164H29.2449C30.8489 12.1164 30.8489 14.5548 29.2449 14.5548H11.1343ZM40.4596 28.6248C43.4029 28.6248 45.7887 31.0107 45.7887 33.954C45.7887 35.0229 45.474 36.018 44.9324 36.8519C47.1511 38.3241 48.5626 40.7543 48.7197 43.4188C48.8136 45.0169 46.384 45.1592 46.2907 43.5618C46.1661 41.4541 44.9555 39.5767 43.094 38.5869C42.3169 39.0298 41.418 39.2826 40.4596 39.2826C39.4225 39.2826 38.4546 38.9867 37.6361 38.4741C35.6613 39.4261 34.3526 41.3702 34.2233 43.5618C34.1294 45.1592 31.7004 45.0169 31.7943 43.4188C31.9591 40.6326 33.4922 38.1109 35.8739 36.67C35.402 35.8745 35.131 34.9461 35.131 33.954C35.131 31.0113 37.5168 28.6248 40.4596 28.6248ZM40.4596 31.0632C38.8633 31.0632 37.5694 32.3577 37.5694 33.954C37.5694 35.5503 38.8633 36.8442 40.4596 36.8442C42.0558 36.8442 43.3503 35.5503 43.3503 33.954C43.3503 32.3577 42.0564 31.0632 40.4596 31.0632Z" fill="#264653"/>
</svg>
