<svg width="89" height="89" viewBox="0 0 89 89" fill="none" xmlns="http://www.w3.org/2000/svg">
<path d="M10.0152 15.7735V30.6748L7.84446 28.5041L5.67375 26.3333L4.59685 27.4272L3.50304 28.5041L7.41103 32.412C9.56483 34.5658 11.3884 36.32 11.4926 36.32C11.5967 36.32 13.455 34.5489 15.6257 32.3604L19.5684 28.4177L18.5262 27.3755L17.4841 26.3333L15.2261 28.5913L12.9673 30.8483V15.8607V0.890026H11.4908H10.0143V15.7735H10.0152Z" fill="#264653"/>
<path d="M26.9652 29.2161C25.3499 29.3896 24.0131 29.5632 23.9953 29.581C23.9775 29.6157 23.3527 31.0228 22.606 32.7066C21.651 34.8774 21.303 35.8501 21.425 36.0068C21.5122 36.1287 24.5685 40.3482 28.2157 45.3678L34.8328 54.5027L32.5927 61.2587C31.3422 64.9754 30.3348 68.1189 30.3348 68.2399C30.3348 68.4829 38.3234 79.5634 38.723 79.8588C38.9144 80.0146 58.6261 87.9863 59.0951 88.1083C59.3381 88.1777 61.9609 86.3372 61.8568 86.1627C61.8221 86.0933 56.9938 84.1139 51.1412 81.7519L40.495 77.4452L37.0738 72.7041C35.1808 70.0991 33.6349 67.859 33.6349 67.737C33.6349 67.2333 36.9866 57.4905 37.1086 57.6293C37.178 57.6987 39.0185 60.2343 41.1901 63.239C43.3608 66.2436 45.2022 68.7614 45.2538 68.8487C45.3749 68.9706 47.7022 67.4247 47.7022 67.2333C47.7022 67.1817 42.5091 60.0083 36.1705 51.2729L24.6379 35.3989L24.9681 34.6522C25.1416 34.2357 25.454 33.5406 25.6454 33.1063C26.0272 32.2207 26.1491 32.1682 28.1463 32.1166L29.5186 32.065L36.5354 41.7037C40.3909 47.0009 43.6216 51.4465 43.691 51.5853C43.7951 51.7589 44.0906 51.62 44.9414 50.9944C45.5493 50.5431 46.07 50.1257 46.1047 50.0394C46.1394 49.97 45.3749 48.8415 44.4199 47.5216L42.7004 45.1595L43.3955 43.6136L44.1075 42.0677L44.9931 41.9635C45.479 41.8941 46.2613 41.8416 46.7295 41.8247L47.5803 41.79L49.2998 44.169L51.0362 46.5657L51.7482 46.0451C52.1478 45.7496 52.6862 45.35 52.947 45.1248L53.416 44.743L52.2866 43.0226L51.1403 41.3032L51.7829 39.8097C52.13 38.9936 52.478 38.2638 52.5474 38.1944C52.599 38.1419 53.3982 38.0377 54.3185 37.9683L55.9863 37.8464L57.0632 39.5134C57.6533 40.4336 58.2096 41.1803 58.279 41.1803C58.4525 41.1803 60.5538 39.6522 60.5538 39.5303C60.5538 39.4787 60.2067 38.9749 59.7724 38.384C59.3381 37.7939 58.991 37.2554 58.991 37.1513C58.991 37.0641 59.2687 36.3352 59.6158 35.536L60.2583 34.0772L61.1439 33.9731C61.6298 33.9037 62.4121 33.8512 62.8803 33.8343L63.7489 33.7996L69.0115 41.0246L74.2741 48.2496L76.4448 56.1341C77.6427 60.4755 78.6849 64.1922 78.789 64.4013C78.911 64.679 82.6792 69.9932 83.2355 70.6705C83.2533 70.7052 83.7908 70.375 84.4334 69.9238C85.1979 69.3684 85.545 69.0204 85.4925 68.8469C85.4409 68.708 84.5028 67.3704 83.4259 65.8769L81.4457 63.15L79.2225 55.0741L77.017 46.9983L71.095 38.8361C67.8474 34.338 65.1729 30.6561 65.1551 30.6392C65.1035 30.535 58.3822 31.3165 58.2781 31.4206C58.2256 31.49 57.9132 32.1504 57.583 32.914C57.2181 33.7479 56.8532 34.338 56.6449 34.4252C56.4536 34.4947 55.1684 34.7376 53.7791 34.929C52.3899 35.1203 51.0869 35.3286 50.8964 35.3633C50.6357 35.4149 50.3411 35.8492 49.872 36.9261C49.5071 37.7601 49.1422 38.4543 49.0906 38.489C49.0212 38.5237 47.4584 38.7319 45.6 38.9233C43.7417 39.1316 42.1789 39.3576 42.1095 39.4092C42.04 39.4787 41.7446 40.1212 41.45 40.8332C41.1376 41.5452 40.8421 42.1878 40.7727 42.2572C40.7202 42.3089 38.48 39.3398 35.7887 35.6579C31.3778 29.5623 30.8741 28.9366 30.4051 28.9019C30.1265 28.9037 28.5806 29.0247 26.9652 29.2161Z" fill="#264653"/>
</svg>
